<svg width="41" height="38" viewBox="0 0 41 38" fill="none" xmlns="http://www.w3.org/2000/svg">
<path d="M0 37.1859V0.5C0 0.223858 0.223859 0 0.500001 0H39.9184C40.1945 0 40.4184 0.223857 40.4184 0.499999V37.1859C40.4184 37.5762 39.9911 37.816 39.6579 37.6127L35.3293 34.9718C35.1694 34.8743 34.9684 34.8743 34.8085 34.9718L29.9958 37.908C29.8276 38.0106 29.6149 38.0049 29.4524 37.8934L25.2312 34.9962C25.0688 34.8847 24.8561 34.879 24.6879 34.9816L19.9109 37.896C19.7328 38.0047 19.506 37.9913 19.3419 37.8626L15.727 35.027C15.5629 34.8983 15.3361 34.885 15.158 34.9936L10.381 37.908C10.2128 38.0106 10.0001 38.0049 9.83764 37.8934L5.61644 34.9962C5.45401 34.8847 5.24126 34.879 5.07309 34.9816L0.76041 37.6127C0.427224 37.816 0 37.5762 0 37.1859Z" fill="#8E0F5D"/>
</svg>
